M48
;DRILL file {PCBNEW (2007-07-09)} date 26/9/2008-09:18:21
;FORMAT={2:4 / absolute / inches / decimal format}
R,T
VER,1
FMAT,2
INCH,TZ
TCST,OFF
ICI,OFF
ATC,ON
T1C0.025
T2C0.032
T3C0.040
T4C0.045
T5C0.050
T6C0.055
T7C0.120
T8C0.126
%
M47
G05
M72
T1
X0.540Y3.940
X2.240Y2.890
X2.720Y2.890
X0.790Y2.890
X3.200Y2.890
X1.760Y2.890
X1.280Y2.890
X6.980Y2.990
X6.980Y3.170
X1.980Y3.460
X2.090Y3.460
X2.340Y3.460
X2.680Y3.460
X2.910Y3.460
X3.200Y3.330
T2
X1.250Y4.080
X1.250Y3.980
X1.430Y2.640
X1.430Y2.540
X1.250Y4.680
X1.150Y4.680
X1.090Y1.810
X1.490Y1.810
X1.090Y1.610
X1.490Y1.610
X1.090Y2.630
X1.090Y2.230
X1.490Y2.950
X1.090Y2.950
X1.180Y2.630
X1.180Y2.230
X1.090Y1.710
X1.490Y1.710
X1.490Y2.730
X1.090Y2.730
X1.100Y4.570
X1.100Y4.170
X1.350Y4.970
X1.350Y4.570
X1.190Y4.570
X1.190Y4.170
X1.440Y5.070
X1.440Y4.670
X1.440Y4.170
X1.440Y4.570
X1.280Y4.570
X1.280Y4.170
X1.380Y2.260
X1.380Y2.360
X1.480Y2.260
X1.480Y2.360
X1.480Y2.460
X1.280Y3.640
X1.380Y3.640
X1.480Y3.640
X1.730Y4.080
X1.730Y3.980
X1.910Y2.640
X1.910Y2.540
X1.730Y4.680
X1.630Y4.680
X1.570Y1.810
X1.970Y1.810
X1.570Y1.610
X1.970Y1.610
X1.570Y2.630
X1.570Y2.230
X1.970Y2.950
X1.570Y2.950
X1.660Y2.630
X1.660Y2.230
X1.570Y1.710
X1.970Y1.710
X1.970Y2.730
X1.570Y2.730
X1.580Y4.570
X1.580Y4.170
X1.830Y4.970
X1.830Y4.570
X1.670Y4.570
X1.670Y4.170
X1.920Y5.070
X1.920Y4.670
X1.920Y4.170
X1.920Y4.570
X1.760Y4.570
X1.760Y4.170
X1.860Y2.260
X1.860Y2.360
X1.960Y2.260
X1.960Y2.360
X1.960Y2.460
X1.760Y3.640
X1.860Y3.640
X1.960Y3.640
X2.210Y4.080
X2.210Y3.980
X2.390Y2.640
X2.390Y2.540
X2.210Y4.680
X2.110Y4.680
X2.050Y1.810
X2.450Y1.810
X2.050Y1.610
X2.450Y1.610
X2.050Y2.630
X2.050Y2.230
X2.450Y2.950
X2.050Y2.950
X2.140Y2.630
X2.140Y2.230
X2.050Y1.710
X2.450Y1.710
X2.450Y2.730
X2.050Y2.730
X2.060Y4.570
X2.060Y4.170
X2.310Y4.970
X2.310Y4.570
X2.150Y4.570
X2.150Y4.170
X2.400Y5.070
X2.400Y4.670
X2.400Y4.170
X2.400Y4.570
X2.240Y4.570
X2.240Y4.170
X2.340Y2.260
X2.340Y2.360
X2.440Y2.260
X2.440Y2.360
X2.440Y2.460
X2.240Y3.640
X2.340Y3.640
X2.440Y3.640
X2.690Y4.080
X2.690Y3.980
X2.870Y2.640
X2.870Y2.540
X2.690Y4.680
X2.590Y4.680
X2.530Y1.810
X2.930Y1.810
X2.530Y1.610
X2.930Y1.610
X2.530Y2.630
X2.530Y2.230
X2.930Y2.950
X2.530Y2.950
X2.620Y2.630
X2.620Y2.230
X2.530Y1.710
X2.930Y1.710
X2.930Y2.730
X2.530Y2.730
X2.540Y4.570
X2.540Y4.170
X2.790Y4.970
X2.790Y4.570
X2.630Y4.570
X2.630Y4.170
X2.880Y5.070
X2.880Y4.670
X2.880Y4.170
X2.880Y4.570
X2.720Y4.570
X2.720Y4.170
X2.820Y2.260
X2.820Y2.360
X2.920Y2.260
X2.920Y2.360
X2.920Y2.460
X2.720Y3.640
X2.820Y3.640
X2.920Y3.640
X0.790Y3.640
X0.890Y3.640
X0.990Y3.640
X0.990Y2.260
X0.990Y2.360
X0.990Y2.460
X0.890Y2.260
X0.890Y2.360
X0.790Y4.570
X0.790Y4.170
X0.950Y4.170
X0.950Y4.570
X0.950Y5.070
X0.950Y4.670
X0.700Y4.570
X0.700Y4.170
X0.860Y4.970
X0.860Y4.570
X0.610Y4.570
X0.610Y4.170
X1.000Y2.730
X0.600Y2.730
X0.600Y1.710
X1.000Y1.710
X0.690Y2.630
X0.690Y2.230
X1.000Y2.950
X0.600Y2.950
X0.610Y2.630
X0.610Y2.230
X0.600Y1.610
X1.000Y1.610
X0.600Y1.810
X1.000Y1.810
X0.760Y4.680
X0.660Y4.680
X0.940Y2.640
X0.940Y2.540
X0.760Y4.080
X0.760Y3.980
X3.640Y3.830
X3.740Y3.830
X3.740Y3.730
X3.680Y3.250
X3.680Y3.650
X3.770Y3.250
X3.770Y3.650
X3.590Y3.250
X3.590Y3.650
X3.930Y3.750
X3.930Y3.850
X6.490Y4.570
X6.090Y4.570
X6.490Y4.470
X6.090Y4.470
X7.160Y4.780
X6.760Y4.780
X7.030Y4.470
X6.630Y4.470
X7.160Y4.670
X6.760Y4.670
X7.030Y4.560
X6.630Y4.560
X6.610Y4.740
X6.710Y4.740
X5.970Y4.570
X5.970Y4.470
X7.250Y4.670
X7.250Y4.770
X7.250Y4.260
X7.250Y4.360
X5.970Y4.160
X5.970Y4.060
X6.610Y4.330
X6.710Y4.330
X7.030Y4.150
X6.630Y4.150
X7.160Y4.260
X6.760Y4.260
X7.030Y4.060
X6.630Y4.060
X7.160Y4.370
X6.760Y4.370
X6.490Y4.060
X6.090Y4.060
X6.490Y4.160
X6.090Y4.160
X3.720Y1.460
X4.120Y1.460
X4.120Y1.670
X4.520Y1.670
X4.220Y1.520
X4.220Y1.420
X4.605Y1.425
X4.605Y1.525
X4.605Y1.585
X4.605Y1.685
X4.425Y1.425
X4.425Y1.525
X4.520Y3.640
X4.520Y3.540
X4.520Y3.440
X4.520Y3.340
X4.520Y3.240
X4.520Y3.140
X4.520Y3.040
X4.220Y3.040
X4.220Y3.140
X4.220Y3.240
X4.220Y3.340
X4.220Y3.440
X4.220Y3.540
X4.220Y3.640
X5.530Y2.990
X5.930Y2.990
X4.730Y3.550
X4.730Y3.150
X4.830Y3.400
X4.830Y3.000
X4.920Y3.500
X4.920Y3.600
X5.910Y3.090
X6.010Y3.090
X6.110Y3.090
X7.130Y3.350
X7.130Y2.950
X7.040Y2.950
X7.040Y3.350
X6.590Y3.210
X6.590Y3.610
X6.890Y3.210
X6.890Y3.610
X6.690Y3.610
X6.690Y3.210
X6.790Y3.210
X6.790Y3.610
X6.480Y3.210
X6.480Y3.610
X5.040Y3.600
X5.040Y3.200
X5.540Y3.520
X5.540Y3.120
X5.140Y3.600
X5.140Y3.200
X6.020Y3.610
X6.020Y3.210
X6.380Y3.210
X6.380Y3.610
X5.440Y3.200
X5.440Y3.600
X5.340Y3.600
X5.340Y3.200
X5.240Y3.600
X5.240Y3.200
X5.670Y3.090
X5.770Y3.090
X6.750Y3.050
X6.850Y3.050
X5.910Y3.630
X5.810Y3.630
X5.430Y3.030
X5.330Y3.030
X6.200Y3.530
X6.200Y3.430
X5.560Y3.630
X5.660Y3.630
X5.290Y4.910
X5.190Y4.910
X4.810Y4.670
X4.910Y4.670
X5.190Y4.670
X5.090Y4.670
X4.710Y4.910
X4.810Y4.910
X4.710Y4.430
X4.810Y4.430
X5.290Y4.430
X5.190Y4.430
X4.240Y4.430
X4.140Y4.430
X3.660Y4.430
X3.760Y4.430
X3.660Y4.910
X3.760Y4.910
X4.140Y4.670
X4.040Y4.670
X3.760Y4.670
X3.860Y4.670
X4.240Y4.910
X4.140Y4.910
X4.090Y3.010
X4.090Y2.910
X4.090Y2.810
X4.090Y2.710
X4.090Y2.610
X4.090Y2.510
X4.090Y2.410
X3.790Y2.410
X3.790Y2.510
X3.790Y2.610
X3.790Y2.710
X3.790Y2.810
X3.790Y2.910
X3.790Y3.010
X6.375Y1.425
X6.375Y1.525
X6.555Y1.585
X6.555Y1.685
X6.555Y1.425
X6.555Y1.525
X3.170Y4.080
X3.170Y3.980
X3.350Y2.640
X3.350Y2.540
X3.170Y4.680
X3.070Y4.680
X3.010Y1.810
X3.410Y1.810
X3.010Y1.610
X3.410Y1.610
X3.015Y2.630
X3.015Y2.230
X3.410Y2.950
X3.010Y2.950
X3.100Y2.630
X3.100Y2.230
X3.010Y1.710
X3.410Y1.710
X3.410Y2.730
X3.010Y2.730
X3.020Y4.570
X3.020Y4.170
X3.270Y4.970
X3.270Y4.570
X3.110Y4.570
X3.110Y4.170
X3.360Y5.070
X3.360Y4.670
X3.360Y4.170
X3.360Y4.570
X3.200Y4.570
X3.200Y4.170
X3.300Y2.260
X3.300Y2.360
X3.400Y2.260
X3.400Y2.360
X3.400Y2.460
X3.200Y3.640
X3.300Y3.640
X3.400Y3.640
X5.560Y2.820
X5.660Y2.820
X6.200Y2.720
X6.200Y2.620
X5.440Y2.220
X5.340Y2.220
X5.910Y2.820
X5.810Y2.820
X6.750Y2.240
X6.850Y2.240
X5.680Y2.250
X5.780Y2.250
X5.240Y2.790
X5.240Y2.390
X5.340Y2.790
X5.340Y2.390
X5.440Y2.390
X5.440Y2.790
X6.380Y2.400
X6.380Y2.800
X6.020Y2.800
X6.020Y2.400
X5.140Y2.790
X5.140Y2.390
X5.530Y2.110
X5.930Y2.110
X5.540Y2.710
X5.540Y2.310
X5.040Y2.790
X5.040Y2.390
X6.480Y2.400
X6.480Y2.800
X6.790Y2.400
X6.790Y2.800
X6.690Y2.800
X6.690Y2.400
X6.890Y2.400
X6.890Y2.800
X6.590Y2.400
X6.590Y2.800
X7.330Y2.190
X6.930Y2.190
X7.340Y2.290
X6.940Y2.290
X5.910Y2.280
X6.010Y2.280
X6.110Y2.280
X7.040Y2.440
X7.040Y2.540
X7.040Y2.640
X7.040Y2.740
X7.340Y2.740
X7.340Y2.640
X7.340Y2.540
X7.340Y2.440
X4.920Y2.690
X4.920Y2.790
X4.830Y2.590
X4.830Y2.190
X4.730Y2.740
X4.730Y2.340
X7.250Y5.070
X7.250Y5.170
X6.170Y1.520
X6.170Y1.420
X5.970Y4.970
X5.970Y4.870
X6.610Y5.140
X6.710Y5.140
X7.030Y4.960
X6.630Y4.960
X7.160Y5.070
X6.760Y5.070
X7.030Y4.870
X6.630Y4.870
X7.160Y5.180
X6.760Y5.180
X6.070Y1.670
X6.470Y1.670
X5.600Y1.500
X6.000Y1.500
X6.490Y4.870
X6.090Y4.870
X6.490Y4.970
X6.090Y4.970
X5.750Y4.840
X5.750Y4.940
X5.410Y4.340
X5.410Y4.740
X5.590Y4.340
X5.590Y4.740
X5.500Y4.340
X5.500Y4.740
X5.460Y4.920
X5.560Y4.920
X5.560Y4.820
X4.220Y2.100
X4.220Y2.200
X4.220Y2.300
X4.220Y2.400
X4.220Y2.500
X4.220Y2.600
X4.220Y2.700
X4.220Y2.800
X4.520Y2.800
X4.520Y2.700
X4.520Y2.600
X4.520Y2.500
X4.520Y2.400
X4.520Y2.300
X4.520Y2.200
X4.520Y2.100
X3.830Y1.780
X3.730Y1.780
X7.440Y2.740
X7.440Y2.640
X7.450Y3.610
X7.050Y3.610
X7.050Y3.520
X7.450Y3.520
X4.120Y2.000
X3.720Y2.000
X3.720Y2.200
X4.120Y2.200
X7.320Y2.910
X7.320Y3.310
X7.230Y3.310
X7.230Y2.910
X0.980Y1.520
X0.980Y1.420
X1.460Y1.520
X1.460Y1.420
X1.950Y1.520
X1.950Y1.420
X2.430Y1.520
X2.430Y1.420
X2.910Y1.520
X2.910Y1.420
X3.370Y1.520
X3.370Y1.420
X5.200Y4.260
X5.300Y4.260
X5.460Y4.210
X5.560Y4.210
X4.930Y4.160
X5.330Y4.160
X4.620Y4.030
X5.020Y4.030
T3
X1.280Y2.640
X1.280Y2.240
X1.490Y2.840
X1.090Y2.840
X1.490Y1.920
X1.090Y1.920
X1.490Y3.860
X1.090Y3.860
X1.090Y3.750
X1.490Y3.750
X1.760Y2.640
X1.760Y2.240
X1.970Y2.840
X1.570Y2.840
X1.970Y1.920
X1.570Y1.920
X1.970Y3.860
X1.570Y3.860
X1.570Y3.750
X1.970Y3.750
X2.240Y2.640
X2.240Y2.240
X2.450Y2.840
X2.050Y2.840
X2.450Y1.920
X2.050Y1.920
X2.450Y3.860
X2.050Y3.860
X2.050Y3.750
X2.450Y3.750
X2.720Y2.640
X2.720Y2.240
X2.930Y2.840
X2.530Y2.840
X2.930Y1.920
X2.530Y1.920
X2.930Y3.860
X2.530Y3.860
X2.530Y3.750
X2.930Y3.750
X7.050Y3.820
X6.950Y3.820
X6.850Y3.820
X6.750Y3.820
X6.650Y3.820
X6.550Y3.820
X6.450Y3.820
X6.350Y3.820
X6.250Y3.820
X6.150Y3.820
X6.050Y3.820
X5.950Y3.820
X5.850Y3.820
X5.750Y3.820
X5.650Y3.820
X5.550Y3.820
X5.450Y3.820
X5.350Y3.820
X5.250Y3.820
X5.150Y3.820
X5.050Y3.820
X4.950Y3.820
X4.850Y3.820
X4.750Y3.820
X4.650Y3.820
X4.650Y3.920
X4.750Y3.920
X4.850Y3.920
X4.950Y3.920
X5.050Y3.920
X5.150Y3.920
X5.250Y3.920
X5.350Y3.920
X5.450Y3.920
X5.550Y3.920
X5.650Y3.920
X5.750Y3.920
X5.850Y3.920
X5.950Y3.920
X6.050Y3.920
X6.150Y3.920
X6.250Y3.920
X6.350Y3.920
X6.450Y3.920
X6.550Y3.920
X6.650Y3.920
X6.750Y3.920
X6.850Y3.920
X6.950Y3.920
X7.050Y3.920
X7.050Y1.920
X6.950Y1.920
X6.850Y1.920
X6.750Y1.920
X6.650Y1.920
X6.550Y1.920
X6.450Y1.920
X6.350Y1.920
X6.250Y1.920
X6.150Y1.920
X6.050Y1.920
X5.950Y1.920
X5.850Y1.920
X5.750Y1.920
X5.650Y1.920
X5.550Y1.920
X5.450Y1.920
X5.350Y1.920
X5.250Y1.920
X5.150Y1.920
X5.050Y1.920
X4.950Y1.920
X4.850Y1.920
X4.750Y1.920
X4.650Y1.920
X4.650Y1.820
X4.750Y1.820
X4.850Y1.820
X4.950Y1.820
X5.050Y1.820
X5.150Y1.820
X5.250Y1.820
X5.350Y1.820
X5.450Y1.820
X5.550Y1.820
X5.650Y1.820
X5.750Y1.820
X5.850Y1.820
X5.950Y1.820
X6.050Y1.820
X6.150Y1.820
X6.250Y1.820
X6.350Y1.820
X6.450Y1.820
X6.550Y1.820
X6.650Y1.820
X6.750Y1.820
X6.850Y1.820
X6.950Y1.820
X7.050Y1.820
X0.600Y3.750
X1.000Y3.750
X1.000Y3.860
X0.600Y3.860
X1.000Y1.920
X0.600Y1.920
X1.000Y2.840
X0.600Y2.840
X0.790Y2.640
X0.790Y2.240
X3.980Y3.660
X3.980Y3.260
X3.870Y3.250
X3.870Y3.650
X6.370Y4.780
X5.970Y4.780
X6.370Y4.670
X5.970Y4.670
X6.370Y4.260
X5.970Y4.260
X6.370Y4.370
X5.970Y4.370
X4.160Y1.360
X3.760Y1.360
X3.720Y1.570
X4.120Y1.570
X4.930Y2.910
X5.330Y2.910
X4.930Y3.400
X4.930Y3.000
X4.590Y4.780
X4.590Y4.380
X3.200Y2.640
X3.200Y2.240
X3.410Y2.840
X3.010Y2.840
X3.410Y1.920
X3.010Y1.920
X3.410Y3.860
X3.010Y3.860
X3.010Y3.750
X3.410Y3.750
X4.140Y4.250
X3.740Y4.250
X3.540Y4.780
X3.540Y4.380
X2.170Y3.530
X2.570Y3.530
X4.930Y2.500
X4.930Y2.100
X5.030Y2.100
X5.430Y2.100
X5.580Y1.620
X5.980Y1.620
X6.030Y1.360
X5.630Y1.360
X6.370Y5.070
X5.970Y5.070
X6.370Y5.180
X5.970Y5.180
X5.690Y4.340
X5.690Y4.740
X5.800Y4.750
X5.800Y4.350
X4.120Y2.100
X3.720Y2.100
X3.720Y1.900
X4.120Y1.900
X7.430Y2.500
X7.430Y2.100
X7.420Y3.300
X7.420Y2.900
X5.070Y4.060
X5.470Y4.060
X4.680Y4.260
X5.080Y4.260
T4
X1.350Y1.500
X1.150Y1.500
X1.250Y1.500
X1.150Y5.030
X1.350Y5.030
X1.250Y5.030
X1.830Y1.500
X1.630Y1.500
X1.730Y1.500
X1.630Y5.030
X1.830Y5.030
X1.730Y5.030
X2.310Y1.500
X2.110Y1.500
X2.210Y1.500
X2.110Y5.030
X2.310Y5.030
X2.210Y5.030
X2.790Y1.500
X2.590Y1.500
X2.690Y1.500
X2.590Y5.030
X2.790Y5.030
X2.690Y5.030
X0.660Y5.030
X0.860Y5.030
X0.760Y5.030
X0.860Y1.500
X0.660Y1.500
X0.760Y1.500
X7.370Y4.730
X7.370Y4.530
X7.370Y4.630
X7.370Y4.320
X7.370Y4.120
X7.370Y4.220
X3.270Y1.500
X3.070Y1.500
X3.170Y1.500
X3.070Y5.030
X3.270Y5.030
X3.170Y5.030
X4.900Y5.030
X5.100Y5.030
X5.000Y5.030
X3.850Y5.030
X4.050Y5.030
X3.950Y5.030
X7.370Y5.130
X7.370Y4.930
X7.370Y5.030
T5
X4.120Y4.130
X4.820Y4.130
X2.660Y3.530
X3.360Y3.530
T6
X0.820Y3.290
X1.020Y3.290
X1.420Y3.290
X1.620Y3.290
X0.850Y3.490
X1.050Y3.490
X1.450Y3.490
X1.650Y3.490
X4.440Y5.130
X4.440Y4.930
X4.440Y4.530
X4.440Y4.330
T7
X1.160Y4.880
X1.420Y4.010
X1.250Y0.850
X1.250Y5.680
X1.640Y4.880
X1.900Y4.010
X1.730Y0.850
X1.730Y5.680
X2.120Y4.880
X2.380Y4.010
X2.210Y0.850
X2.210Y5.680
X2.600Y4.880
X2.860Y4.010
X2.690Y0.850
X2.690Y5.680
X0.760Y5.680
X0.760Y0.850
X0.930Y4.010
X0.670Y4.880
X3.920Y4.030
X3.650Y4.030
X8.020Y4.630
X7.190Y4.520
X6.500Y4.710
X6.500Y4.300
X7.190Y4.110
X8.020Y4.220
X5.100Y3.070
X6.590Y3.050
X6.360Y3.020
X6.170Y3.680
X6.250Y3.270
X3.370Y3.350
X3.080Y4.880
X3.340Y4.010
X0.670Y3.320
X4.630Y5.100
X0.670Y3.520
X4.190Y5.120
X0.680Y3.110
X3.170Y0.850
X3.170Y5.680
X5.000Y5.680
X3.950Y5.680
X6.190Y2.450
X6.140Y2.870
X6.310Y2.240
X6.590Y2.240
X5.150Y2.240
X6.500Y5.110
X7.190Y4.920
X8.020Y5.030
X5.470Y5.120
X5.740Y5.120
X3.570Y1.830
X3.550Y1.650
X3.550Y1.420
X1.840Y3.350
X2.260Y3.350
X2.560Y3.350
X2.790Y3.350
X3.020Y3.350
X5.660Y4.080
X5.770Y4.220
T8
X7.350Y3.870
X4.350Y3.870
X4.350Y1.870
X7.350Y1.870
T0
M30
